<svg xmlns="http://www.w3.org/2000/svg" width="25.118" height="16.042" viewBox="0 0 25.118 16.042">
  <path id="Combined_Shape" data-name="Combined Shape" d="M6.786,24.041l-.011-.168V4.263L2.129,8.932a1.248,1.248,0,0,1-1.623.124l-.14-.121A1.245,1.245,0,0,1,.243,7.313l.12-.14L7.138.367A1.245,1.245,0,0,1,8.764.246l.011.009a1.253,1.253,0,0,1,.118.1L8.9.367l6.774,6.806a1.246,1.246,0,0,1-1.626,1.879l-.139-.121L9.267,4.264V23.873a1.246,1.246,0,0,1-2.481.168Z" transform="translate(25.118 0) rotate(90)" fill="#fff"/>
</svg>
